<?xml version="1.0" encoding="utf-8"?>
<!-- Generator: Adobe Illustrator 21.0.2, SVG Export Plug-In . SVG Version: 6.00 Build 0)  -->
<svg version="1.1" id="Layer_1" xmlns="http://www.w3.org/2000/svg" xmlns:xlink="http://www.w3.org/1999/xlink" x="0px" y="0px"
	 viewBox="0 0 1165 192" style="enable-background:new 0 0 1165 192;" xml:space="preserve">
<g>
	<path d="M247.2,62.2V70c0,0.8-0.5,1.3-1.3,1.3h-13v48.4c0,0.8-0.5,1.3-1.3,1.3h-9.2c-0.8,0-1.3-0.5-1.3-1.3V71.3h-13
		c-0.8,0-1.3-0.5-1.3-1.3v-7.8c0-0.8,0.5-1.3,1.3-1.3h37.8C246.7,60.9,247.2,61.4,247.2,62.2z"/>
	<path d="M303.6,62.2v57.5c0,0.8-0.5,1.3-1.3,1.3h-9.2c-0.8,0-1.3-0.5-1.3-1.3V96.6h-22.6v23.1c0,0.8-0.5,1.3-1.3,1.3h-9.2
		c-0.8,0-1.3-0.5-1.3-1.3V62.2c0-0.8,0.5-1.3,1.3-1.3h9.2c0.8,0,1.3,0.5,1.3,1.3v24h22.6v-24c0-0.8,0.5-1.3,1.3-1.3h9.2
		C303.1,60.9,303.6,61.4,303.6,62.2z"/>
	<path d="M349.9,111.8v7.8c0,0.8-0.5,1.3-1.3,1.3H317c-0.8,0-1.3-0.5-1.3-1.3V62.2c0-0.8,0.5-1.3,1.3-1.3h31.6
		c0.8,0,1.3,0.5,1.3,1.3V70c0,0.8-0.5,1.3-1.3,1.3h-21.1v13.6h19.8c0.8,0,1.3,0.5,1.3,1.3v7.8c0,0.8-0.5,1.3-1.3,1.3h-19.8v15.4
		h21.2C349.4,110.6,349.9,111.1,349.9,111.8z"/>
	<path d="M449,62.2v57.5c0,0.8-0.5,1.3-1.3,1.3h-9.2c-0.8,0-1.3-0.5-1.3-1.3V82.8l-1.1,3.8l-13.2,33.4c-0.3,0.7-0.9,1-1.5,1h-8.2
		c-0.7,0-1.3-0.3-1.5-1l-13.3-33.4l-1.1-3.9v37c0,0.8-0.5,1.3-1.3,1.3h-9.2c-0.8,0-1.3-0.5-1.3-1.3V62.2c0-0.8,0.5-1.3,1.3-1.3h10.3
		c0.7,0,1.3,0.3,1.5,0.9l18.6,45.7l18.5-45.7c0.3-0.6,0.9-0.9,1.5-0.9h10.4C448.5,60.9,449,61.4,449,62.2z"/>
	<path d="M459.4,91.2c0-17.2,13.9-31,30.9-31c17,0,30.9,13.7,30.9,31c0,17.2-13.9,30.9-30.9,30.9
		C473.3,122.1,459.4,108.3,459.4,91.2z M509.2,91.2c0-11.1-8.2-19.5-19-19.5c-10.7,0-19,8.4-19,19.5c0,11,8.2,19.4,19,19.4
		C501,110.6,509.2,102.1,509.2,91.2z"/>
	<path d="M579.7,62.2v57.5c0,0.8-0.5,1.3-1.3,1.3h-10.6c-0.7,0-1.2-0.3-1.5-0.9l-23.1-40.8v40.3c0,0.8-0.5,1.3-1.3,1.3h-9.2
		c-0.8,0-1.3-0.5-1.3-1.3V62.2c0-0.8,0.5-1.3,1.3-1.3h10.6c0.7,0,1.2,0.3,1.5,0.9l23.1,40.8V62.2c0-0.8,0.5-1.3,1.3-1.3h9.2
		C579.2,60.9,579.7,61.4,579.7,62.2z"/>
	<path d="M641.4,90.9c0,16.7-10.9,30-31.5,30H593c-0.8,0-1.3-0.5-1.3-1.3V62.2c0-0.8,0.5-1.3,1.3-1.3h16.9
		C630.5,60.9,641.4,74.2,641.4,90.9z M629.4,90.9c0-12.4-6.5-19.6-19.6-19.6h-6.4v39.3h6.4C622.9,110.6,629.4,103.3,629.4,90.9z"/>
	<path d="M692.2,120.9h-9.8c-0.7,0-1.2-0.3-1.5-0.9l-13-20h-5v19.6c0,0.8-0.5,1.3-1.3,1.3h-9.2c-0.8,0-1.3-0.5-1.3-1.3V62.2
		c0-0.8,0.5-1.3,1.3-1.3h17.8c14.2,0,21.8,8.2,21.8,19.6c0,8.7-4.4,15.4-12.6,18.3l13.6,20.7C693.7,120.3,693.3,120.9,692.2,120.9z
		 M663,89.6h7c5.5,0,10.8-2.1,10.8-9.2c0-6.9-5.3-9.2-10.8-9.2h-7V89.6z"/>
	<path d="M704.9,60.9h9.2c0.8,0,1.3,0.5,1.3,1.3v57.5c0,0.8-0.5,1.3-1.3,1.3h-9.2c-0.8,0-1.3-0.5-1.3-1.3V62.2
		C703.7,61.4,704.2,60.9,704.9,60.9z"/>
	<path d="M776.4,120.9h-9.5c-0.7,0-1.2-0.3-1.5-1l-3.4-10.2h-22.5l-3.4,10.2c-0.3,0.8-0.8,1-1.5,1h-9.5c-0.9,0-1.4-0.6-1-1.5
		l20.8-57.6c0.3-0.7,0.8-1,1.5-1h8.6c0.7,0,1.4,0.3,1.6,1l20.8,57.6C777.8,120.3,777.4,120.9,776.4,120.9z M758.8,100.3l-8.1-24.1
		l-8.1,24.1H758.8z"/>
	<path d="M834.3,62.2v57.5c0,0.8-0.5,1.3-1.3,1.3h-10.6c-0.7,0-1.2-0.3-1.5-0.9l-23.1-40.8v40.3c0,0.8-0.5,1.3-1.3,1.3h-9.2
		c-0.8,0-1.3-0.5-1.3-1.3V62.2c0-0.8,0.5-1.3,1.3-1.3H798c0.7,0,1.2,0.3,1.5,0.9l23.1,40.8V62.2c0-0.8,0.5-1.3,1.3-1.3h9.2
		C833.8,60.9,834.3,61.4,834.3,62.2z"/>
	<path d="M911.2,80.4c0,11.5-7.6,19.6-21.8,19.6h-7.3v19.6c0,0.8-0.5,1.3-1.3,1.3h-9.2c-0.8,0-1.3-0.5-1.3-1.3V62.2
		c0-0.8,0.5-1.3,1.3-1.3h17.8C903.6,60.9,911.2,69,911.2,80.4z M900,80.4c0-6.9-5.3-9.2-10.8-9.2h-7v18.4h7
		C894.6,89.6,900,87.5,900,80.4z"/>
	<path d="M963.2,120.9h-9.5c-0.7,0-1.2-0.3-1.5-1l-3.4-10.2h-22.5l-3.4,10.2c-0.3,0.8-0.8,1-1.5,1h-9.5c-0.9,0-1.4-0.6-1-1.5
		l20.8-57.6c0.3-0.7,0.8-1,1.5-1h8.6c0.7,0,1.4,0.3,1.6,1l20.8,57.6C964.6,120.3,964.1,120.9,963.2,120.9z M945.6,100.3l-8.1-24.1
		l-8.1,24.1H945.6z"/>
	<path d="M1013.7,80.4c0,11.5-7.6,19.6-21.8,19.6h-7.3v19.6c0,0.8-0.5,1.3-1.3,1.3h-9.2c-0.8,0-1.3-0.5-1.3-1.3V62.2
		c0-0.8,0.5-1.3,1.3-1.3h17.8C1006.1,60.9,1013.7,69,1013.7,80.4z M1002.5,80.4c0-6.9-5.3-9.2-10.8-9.2h-7v18.4h7
		C997.2,89.6,1002.5,87.5,1002.5,80.4z"/>
	<path d="M1057.4,111.8v7.8c0,0.8-0.5,1.3-1.3,1.3h-31.7c-0.8,0-1.3-0.5-1.3-1.3V62.2c0-0.8,0.5-1.3,1.3-1.3h31.6
		c0.8,0,1.3,0.5,1.3,1.3V70c0,0.8-0.5,1.3-1.3,1.3h-21.1v13.6h19.8c0.8,0,1.3,0.5,1.3,1.3v7.8c0,0.8-0.5,1.3-1.3,1.3h-19.8v15.4
		h21.2C1056.9,110.6,1057.4,111.1,1057.4,111.8z"/>
	<path d="M1110,120.9h-9.8c-0.7,0-1.2-0.3-1.5-0.9l-13-20h-5v19.6c0,0.8-0.5,1.3-1.3,1.3h-9.2c-0.8,0-1.3-0.5-1.3-1.3V62.2
		c0-0.8,0.5-1.3,1.3-1.3h17.8c14.2,0,21.8,8.2,21.8,19.6c0,8.7-4.4,15.4-12.6,18.3l13.6,20.7C1111.5,120.3,1111,120.9,1110,120.9z
		 M1080.7,89.6h7c5.5,0,10.8-2.1,10.8-9.2c0-6.9-5.3-9.2-10.8-9.2h-7V89.6z"/>
	<path d="M1158.1,104.2c0,11.3-10.4,17.8-20.8,17.8c-8.8,0-16.6-4.4-20.2-9.4c-0.4-0.6-0.4-1.2,0.1-1.8l5.1-5.6
		c0.5-0.6,1.2-0.7,1.9-0.1c4.1,3.6,8.2,5.8,13.4,5.8c5.1,0,9.1-2.7,9.1-7c0-10.6-28.1-7.3-28.1-26.9c0-10.5,8.8-16.8,18.7-16.8
		c7.5,0,13.6,3.2,18.3,8c0.6,0.6,0.6,1.1,0.1,1.8l-4.7,5.7c-0.5,0.7-1.1,0.8-1.8,0.3c-4.2-3.3-7.2-4.8-11.5-4.8
		c-4.8,0-7.6,2.6-7.6,6.1C1130,87.8,1158.1,83.4,1158.1,104.2z"/>
</g>
<path d="M97,3L2.2,96.5L97,190l94.7-93.5L97,3z M19.2,96.5l28.5-28.1c0,0,0,0,0,0c0,0.1,0,0.2,0,0.3c0,0.4,0.1,0.7,0.1,1.1
	c0.1,0.4,0.1,0.8,0,1.2c0,0.2-0.1,0.4-0.1,0.6c-0.1,0.3-0.1,0.6-0.2,0.9c-0.1,0.4-0.1,0.8-0.2,1.3c0,0.2-0.1,0.5-0.1,0.7
	c0,0.2-0.1,0.5-0.1,0.7c-0.1,0.5-0.2,1-0.2,1.6c0,0.5,0,0.9,0.1,1.3c0,0.2,0,0.3,0,0.5c0,0.1,0,0.1,0,0.2l0,0.4
	c0,0.6-0.1,1.1-0.1,1.7l0,0.2c0,0.3,0,0.6-0.1,0.9c-0.1,0.5-0.2,1.1-0.4,1.6c-0.4,1.1-0.6,2.2-0.6,3.4c0,0.1,0,0.3-0.1,0.5
	c0,0.2-0.1,0.5-0.1,0.7c0,0.7,0,1.4,0,2.1c0,0.3,0.1,0.7,0.1,1c0,0.3,0.1,0.6,0.1,0.9c0,0.3,0,0.5,0,0.8c0,0.4,0,0.9,0,1.3
	c0.1,1,0.2,1.8,0.4,2.6c0.3,1,0.5,2,1.2,3c0.3,0.4,1.1,1.6,2.5,1.6c0.2,0,0.3,0,0.5,0c0.4-0.1,0.7-0.3,1-0.5
	c0.1-0.1,0.3-0.3,0.4-0.4c0,0,0.1-0.1,0.1-0.1c0.8-0.4,1-1.2,1.1-1.6c0.1-0.2,0.1-0.3,0.1-0.5c0.1-0.2,0.1-0.5,0.2-0.6
	c0.4-0.5,0.6-1.2,0.6-1.9l0,0c0-0.1,0.1-0.2,0.1-0.2c0.1-0.3,0.3-0.6,0.4-1c0-0.2,0.1-0.5,0.2-0.7c0.1-0.5,0.3-1.1,0.3-1.7
	c0.3-0.4,0.4-1,0.3-1.5c0-0.1,0-0.2,0-0.3l0-0.1c0,0,0-0.1,0-0.1c0-0.1,0.1-0.3,0-0.6c0-0.2,0-0.4-0.1-0.6c0-0.3-0.1-0.5-0.1-0.8
	c0-0.3,0-0.6,0-0.9c0-0.5,0-1,0-1.5c-0.1-0.8-0.1-1.7,0-2.5c0-0.1,0-0.2,0.1-0.3c0.1-0.3,0.2-0.8,0.1-1.3c0-0.2-0.1-0.4-0.1-0.5
	c0-0.5,0.1-0.9,0.1-1.4c0-0.4,0.1-0.9,0.1-1.3c0-0.3,0-0.6,0-0.9c0-0.1,0-0.2,0-0.3l0-0.6c0-0.4,0-0.8,0-1.3c0-0.1,0-0.3,0-0.4
	c0-0.2,0-0.4,0-0.7c0-0.3-0.1-0.5-0.1-0.7l0,0c0-0.7,0.1-1.3,0.2-1.9c0-0.1,0.1-0.3,0.1-0.4c0.1-0.4,0.3-0.8,0.3-1.2
	c0.1-1.7,0.2-3,0.2-4.2c0-0.5,0.2-0.9,0.4-1.3c0.1,0,0.2,0.1,0.3,0.1c0.3,0.2,0.6,0.3,0.8,0.5c0.2,0.3,0.5,0.5,0.7,0.7
	c0.1,0.1,0.3,0.2,0.4,0.3c0.4,0.6,0.9,1,1.4,1.4c0.3,0.2,0.6,0.5,0.8,0.7c0.2,0.2,0.4,0.4,0.6,0.6c0.3,0.3,0.5,0.5,0.6,0.7
	c0.5,0.9,1.1,1.6,1.9,2.1c0.5,0.3,0.9,0.9,1.2,1.3c0.3,0.4,0.5,0.8,0.8,1.2c0.2,0.3,0.3,0.6,0.5,0.8c0.1,0.2,0.3,0.4,0.4,0.5
	c0.1,0.1,0.1,0.1,0.2,0.2c0,0.1,0.1,0.1,0.1,0.2c0,0,0,0,0.1,0.1c0.2,0.7,0.6,1.1,0.9,1.5c0.2,0.2,0.3,0.4,0.4,0.6
	c0.5,0.9,1.2,1.3,1.8,1.6c0.1,0.1,0.3,0.1,0.4,0.2c0.2,0.5,0.4,0.9,0.8,1.3c0.1,0.1,0.1,0.2,0.2,0.3c0.1,0.2,0.2,0.3,0.3,0.5
	c0.3,0.5,0.8,1,1.2,1.6c0.5,0.6,1.5,1.8,3.1,1.4c0,0,0.1,0,0.1,0c0.1,0,0.2,0,0.2-0.1c0.7-0.2,1.6-0.5,2.3-1.2
	c0.2-0.2,0.4-0.4,0.6-0.6c0.1-0.1,0.3-0.3,0.4-0.4c0.1-0.1,0.1-0.1,0.2-0.2c0.3-0.2,0.6-0.5,0.8-0.9c0.5-1,1.1-2,1.8-2.8
	c0.1-0.1,0.2-0.3,0.2-0.3c0.1-0.2,0.2-0.4,0.2-0.5c0.2-0.4,0.3-0.8,0.6-1c0.6-0.5,0.9-1.3,1.1-2.2c0,0,0-0.1,0.2-0.4
	c0.1-0.1,0.2-0.3,0.4-0.4c0.2-0.2,0.4-0.4,0.6-0.6c0.2-0.3,0.4-0.6,0.6-0.8c0.1-0.1,0.2-0.3,0.3-0.4c0.1-0.1,0.1-0.1,0.2-0.2
	c0.1-0.1,0.2-0.2,0.3-0.4c0.2-0.3,0.4-0.6,0.6-0.9c0.4-0.6,0.8-1.1,1.2-1.7c0.2-0.2,0.3-0.4,0.4-0.6c0.1-0.1,0.2-0.3,0.2-0.4
	c0.2-0.1,0.4-0.3,0.6-0.7c0-0.1,0.1-0.2,0.1-0.3c0.1-0.3,0.3-0.6,0.4-0.8c0,0,0.1-0.1,0.1-0.1c0.1-0.1,0.3-0.3,0.4-0.6
	c0.3-0.5,0.5-0.9,0.7-1.4l0.1-0.1c0-0.1,0-0.1,0.1-0.2c0.1-0.1,0.3-0.2,0.4-0.3c0,0.1,0,0.2,0,0.3c0,0.2,0,0.5,0,0.6
	c-0.2,1,0.1,1.8,0.3,2.5l0,0.1c0.1,0.3,0.1,0.7,0.2,1.1l0,0c0,0.1-0.1,0.3-0.1,0.5c0,0.3,0,0.5,0.1,0.8c0,0.4,0.1,0.7,0.1,1.1
	c0,0.1,0,0.3-0.1,0.4c0,0.2-0.1,0.5-0.1,0.7c0,0.4,0,0.8,0,1.2c0,0.2,0,0.4,0,0.5c0,0.1,0,0.2,0,0.3l0,0.3c0,0.4,0,0.7,0,1.1
	c0,0.2,0,0.4,0,0.6c0,0.2,0,0.3,0,0.5c0,0.2,0,0.4,0,0.6c0,0.3,0,0.7,0,1.1c0,0.5,0.1,0.9,0.1,1.4c0.1,0.6,0.1,1.1,0.1,1.6
	c0,0.8,0,1.6-0.1,2.4l0,0.2c0,0.7-0.1,1.3-0.1,2l-0.2,2.7c0,0.1,0,0.1,0,0.2c0,0.3-0.1,0.6,0,1c0,0.2,0,0.3,0,0.4
	C93,89.7,93,90,93,90.2c0,0.2,0,0.3,0,0.5c0,0.2,0,0.5,0,0.7c0,0.4-0.1,0.9-0.1,1.4c0,0.2,0,0.4-0.1,0.6l0,0.1l0,0.1
	c0,0.2,0,0.4,0.1,0.7c0,0.1,0,0.1,0,0.2c-0.5,1.3-0.5,2.5-0.4,3.8c0,0.7,0,1.4,0,2.1l0,0.1c0,0.9-0.1,1.8,0,2.8
	c0.1,0.7,0.1,1.4,0.1,2.2c0,0.3,0,0.5-0.1,0.8c0,0.3-0.1,0.6-0.1,0.9c0,0.3,0,0.6,0,0.8c0,0.2,0,0.3,0,0.5c0,0.1,0,0.2,0,0.3
	c0,0.1,0,0.3,0,0.4c0,0.2,0,0.3,0,0.5c0,0.1,0,0.3,0,0.4c-0.1,0.8-0.1,1.6-0.1,2.3c0,0.2,0,0.3,0,0.5c0,0.2,0,0.4,0,0.5
	c0,0.2,0,0.4,0,0.6c0,0.5,0,1-0.1,1.5l0,0.2c-0.1,0.6-0.2,1.4,0.3,2.3c0.1,0.1,0.1,0.4,0.1,0.5c0,1.3,0,2.6-0.1,3.8l0,0.2
	c0,0.1,0,0.3-0.1,0.4c0,0.1,0,0.2-0.1,0.4l-0.1,0.7c-0.1,0.6-0.2,1.2-0.2,1.9c0,0.5-0.1,1.1-0.1,1.6l0,0.6c0,0.3,0,0.6,0,0.8
	c0,0.6,0,1.1-0.1,1.7c0,0.4-0.1,0.9-0.2,1.3c0,0.2-0.1,0.4-0.2,0.6c-0.2,0.4-0.4,1-0.4,1.6c0,0.4,0,0.7-0.1,1.1c0,0.5-0.1,1-0.1,1.5
	c0,0.5,0.1,0.9,0.1,1.3c0,0.2,0.1,0.5,0.1,0.7c0,0.4,0,0.8,0,1.2c0,0.3,0,0.6-0.1,0.9c0,0.4-0.1,0.9-0.1,1.4c0,0.6,0,1.2,0.1,1.8
	l0,0.1c0,0.2,0,0.3,0,0.5c0,0.5,0,1,0.2,1.7c0.1,0.2,0.1,0.5,0.1,0.6c-0.1,0.7,0.1,1.3,0.3,1.7c0.1,0.1,0.1,0.3,0.1,0.4
	c0.1,0.5,0.3,0.9,0.5,1.3c0.7,0.9,1.5,1.3,2.4,1.3c0.1,0,0.2,0,0.3,0c0.6-0.1,1.3-0.1,2.1-0.5c1.3-0.7,2.2-1.7,2.9-3.2
	c0.1-0.3,0.1-0.5,0.2-0.7l0,0c0.1-0.3,0.2-0.5,0.3-0.8c0.1-0.2,0.1-0.4,0.2-0.6c0.1-0.3,0.1-0.7,0-0.9c0-0.2-0.1-0.3-0.1-0.5
	c-0.1-0.2-0.1-0.5-0.2-0.7l0-0.1c0,0,0,0,0,0c0.2-0.5,0.2-1,0.2-1.4c0-0.1,0-0.3,0-0.4c0,0,0-0.1,0-0.1c0.2-0.6,0.3-1.3,0.3-1.9
	c0-0.1,0-0.1,0-0.2c0-0.4,0.1-0.9-0.2-1.5c-0.1-0.1-0.1-0.4-0.1-0.7l0-0.1c0-0.2,0-0.4-0.1-0.6c0-0.1,0-0.2,0-0.3c0-0.2,0-0.4,0-0.6
	c0-0.4-0.1-0.7,0-1c0.1-0.6,0.2-1.2,0.2-1.7c0-0.3,0-0.6,0-0.9c0-0.2,0-0.3,0-0.5c0,0,0-0.1,0-0.1c0-0.1,0-0.3,0-0.4
	c0-0.2,0-0.3,0-0.5c0-0.1,0-0.2,0-0.4c0-0.1,0-0.1,0-0.2c0-0.3,0.1-0.7,0-1.1c-0.1-0.3-0.1-0.7,0-1.2c0-0.2,0-0.3,0-0.5
	c0-0.2,0-0.3,0.1-0.5c0-0.3,0.1-0.6,0.1-0.9c0-0.1,0-0.3,0.1-0.5c0-0.1,0-0.3,0.1-0.4c0-0.2,0-0.4,0-0.6c0-0.1,0-0.2,0-0.4
	c0-0.1,0-0.1,0-0.1c0.1-0.7,0.1-0.8,0.2-0.9c0.3-0.1,0.5-0.3,0.6-0.5l0,0c0,0,0,0,0,0c0.3,0,0.5,0,0.8,0l0.5,0c0.1,0,0.2,0,0.3,0
	c0.3,0,0.5,0,0.6,0c0,0,0,0,0,0c0.4,0.2,1,0.3,1.6,0.4c0.2,0,0.4,0,0.6,0.4c0.5,0.7,1.2,1,2,0.8c0.1,0,0.2,0.1,0.2,0.1
	c0.2,0,0.8,0.1,1.3-0.5c0.3,0.2,0.8,0.3,1.4,0l0.4,0.1c0.2,0.1,0.5,0.1,0.7,0.2c0,0,0.1,0,0.1,0.1c0.2,0.1,0.8,0.5,1.4,0.3l0.7,0.4
	c0.3,0.1,0.5,0.3,0.8,0.4c0.3,0.1,0.5,0.1,0.7,0.1l0,0c0.1,0,0.3,0.1,0.6,0.1c0.3,0,0.5,0,0.8,0.1c0.3,0,0.7,0.1,1,0.1
	c0.4,0.1,0.8,0.1,1.1,0.3c0.4,0.2,0.9,0.4,1.6,0.3c0,0,0.1,0,0.1,0c0.2,0.1,0.5,0.1,0.7,0.2c0.2,0,0.5,0,0.6,0c0.1,0,0.1,0,0.2,0
	c0.8,0.3,1.7,0.3,2.6,0.3c0.1,0,0.2,0,0.2,0c0.3,0,0.6,0,0.9-0.1c0.4-0.1,1-0.4,1.4-0.9c0.4-0.5,0.7-1.2,0.9-2
	c0.1-0.8-0.1-1.6-0.6-2.1c0,0,0-0.1,0-0.2c0-0.4-0.3-0.8-0.4-1c-0.1-0.1-0.2-0.3-0.3-0.4c0-0.1-0.1-0.1-0.1-0.2l0-0.1
	c-0.1-0.1-0.2-0.3-0.3-0.4l-0.1-0.1c-0.1-0.1-0.2-0.2-0.2-0.3c0-0.3-0.1-0.6-0.2-0.8c0-0.1-0.1-0.3-0.1-0.4
	c-0.1-0.4-0.1-0.8-0.1-1.1c0-0.4,0.1-0.9,0.2-1.3c0-0.3,0.1-0.7,0.1-1c0.1-0.7,0.1-1.4,0.2-2.1l0-0.4c0-0.9,0.1-1.8,0.1-2.8
	c0-0.3,0-0.5,0-0.8c0-0.5,0-1,0-1.5c0.1-0.4,0-0.9-0.3-1.4c0-0.1,0-0.2,0-0.3l0-0.1c0-0.1,0.1-0.3,0-0.5c-0.1-0.7-0.2-1.5-0.5-2.4
	l0.3-0.3l-0.7-1.1c-0.2-0.4-0.5-0.7-0.7-1.1c0-0.1-0.1-0.2-0.1-0.3c-0.1-0.2-0.2-0.4-0.4-0.6c-0.4-0.4-0.8-0.7-1.1-0.9
	c-0.5-0.3-0.9-0.7-1.4-1.1c-0.1-0.1-0.3-0.2-0.4-0.4c-0.3-0.2-0.5-0.5-0.8-0.7l-0.7-0.6c-0.3-0.3-0.6-0.5-0.9-0.8
	c-0.3-0.2-0.6-0.4-0.8-0.5c-0.1-0.1-0.3-0.1-0.4-0.2l0,0c-0.1-0.1-0.2-0.1-0.3-0.2c-0.2-0.1-0.5-0.3-0.8-0.5
	c-0.4-0.2-0.9-0.3-1.2-0.3c-0.2,0-0.5,0-0.6,0c0,0,0,0-0.1,0c-0.2-0.1-0.4-0.2-0.7-0.1l-0.2,0c-0.4,0-0.9,0.1-1.4,0.4
	c-0.2,0.1-0.4,0.2-0.6,0.1c-0.3,0-0.8-0.1-1.3,0.2c0,0-0.2,0-0.4,0c-1,0-2,0.1-2.9,0.2l-0.5,0.1l-0.4,0c-0.3,0-0.6,0-0.9,0
	c-0.2,0-0.4,0-0.6,0c-0.1,0-0.2,0-0.3,0l-0.3,0c-0.4,0-0.7,0-1.1,0c-0.2,0-0.5-0.1-0.7-0.2c-0.1,0-0.2,0-0.2-0.1
	c0-0.2,0.1-0.3,0.1-0.4c0.2-0.4,0.2-0.7,0.2-0.9l0-0.4c0-0.3,0-0.7,0-1c0-0.3,0-0.5,0-0.8c0-0.2,0-0.3,0-0.5c0-0.2,0-0.4,0-0.6
	c0-0.5-0.1-0.9,0-1.3c0-0.3,0.1-0.8-0.2-1.4l0-0.5c0-0.4-0.1-0.7-0.1-1.1c0-0.2,0-0.4-0.1-0.6c0-0.1,0-0.3-0.1-0.4
	c0-0.1,0-0.2,0-0.3c0-0.2,0-0.4-0.1-0.7c0-0.2-0.1-0.5-0.2-0.7c-0.2-0.7-0.3-1.2-0.2-1.7c0.1-0.2,0-0.4,0-0.5c0-0.1,0-0.3,0-0.4
	c0-0.6-0.1-1.2-0.3-1.9l0-0.1c0-0.2,0-0.3,0-0.5l0-0.1c0-0.2,0.1-0.4,0.1-0.5c0.2-0.6,0.2-1.5-0.1-2.1c0.1-0.2,0.1-0.4,0.1-0.5
	c0-0.2,0-0.4,0-0.7c0-0.1,0-0.3,0-0.5c0-0.5,0.1-1.1-0.2-1.8l0.1-1.1c0-0.1,0-0.2,0-0.3c0-0.3,0.1-0.6,0.1-1c0-0.2,0-0.3,0-0.5
	c-0.1-0.5-0.1-0.9,0-1.3c0.1-0.2,0.1-0.5,0-0.7c-0.2-0.9-0.3-1.8-0.5-2.7c0,0,0-0.1,0-0.1c0-0.4,0-0.8,0-1.2l0-0.7
	c0-0.2,0-0.4,0-0.6c0-0.3,0-0.7-0.1-1c0-0.3,0-0.6-0.1-0.9c0-0.2,0-0.3,0-0.5c0-0.4,0-0.9-0.1-1.4c-0.1-0.5-0.2-0.9-0.2-1.3
	c0-0.9-0.2-1.8-0.6-2.6c-0.5-1.1-1.2-2.4-2.1-3.6c-0.3-0.3-0.7-0.8-1.3-1.2c-0.4-0.2-1.5-1-2.9-0.5c-0.1,0-0.3,0.1-0.4,0.1
	c-0.4,0.1-0.8,0.2-1.2,0.4c-0.5,0.2-0.8,0.6-1.1,1l-0.1,0.1c-0.2,0.2-0.3,0.4-0.3,0.5c0,0,0,0.1-0.1,0.1c-0.4,0.6-0.7,1.2-0.7,1.8
	c0,0,0,0.1,0,0.1c0,0.1-0.1,0.2-0.1,0.3l-0.1,0.2c0,0.2-0.1,0.3-0.1,0.5l0,0.1c0,0,0,0,0,0.1c-0.2,0.3-0.3,0.6-0.4,0.9
	c-0.1,0.2-0.2,0.5-0.3,0.6c-0.3,0.4-0.6,0.8-0.8,1.2c-0.1,0.2-0.2,0.4-0.4,0.6c-0.2,0.2-0.3,0.5-0.5,0.7c-0.2,0.2-0.3,0.4-0.5,0.6
	c-0.1,0.2-0.2,0.3-0.3,0.5c-0.1,0.1-0.1,0.2-0.2,0.3c-0.1,0.2-0.3,0.3-0.4,0.5c-0.1,0.2-0.3,0.3-0.4,0.5c-0.2,0.3-0.4,0.5-0.5,0.8
	c-0.2,0.3-0.4,0.7-0.5,1c-0.3,0.6-0.6,1.3-1,1.8c-0.2,0.4-0.5,0.7-0.8,1.1c-0.2,0.2-0.3,0.4-0.5,0.6c-0.3,0.4-0.6,0.9-0.9,1.3
	c-0.1,0.2-0.3,0.4-0.4,0.6c-0.2,0.3-0.4,0.6-0.6,0.8c-0.1,0.2-0.3,0.4-0.5,0.5c-0.5,0.6-1,1.2-1.4,1.9l-0.2,0.2
	c-0.2,0.2-0.4,0.4-0.6,0.6l-0.1,0c0,0-0.1,0.1-0.1,0.1c-0.1,0-0.2,0.1-0.3,0.1c-0.2,0.1-0.5,0.1-0.7,0.3c0,0-0.1-0.1-0.1-0.1
	c-0.1-0.1-0.1-0.1-0.2-0.2c-0.1-0.1-0.2-0.2-0.3-0.3c-0.2-0.1-0.3-0.3-0.4-0.4c-0.3-0.4-0.6-0.9-0.8-1.3c-0.1-0.3-0.3-0.7-0.4-1
	c-0.1-0.3-0.2-0.5-0.3-0.8c-0.2-0.4-0.3-0.7-0.5-1c-0.2-0.2-0.4-0.4-0.5-0.6c0,0-0.1-0.1-0.1-0.1l-2-2c-0.2-0.2-0.4-0.4-0.6-0.6
	c-0.1-0.2-0.3-0.7-0.9-0.8c0,0-0.1-0.1-0.1-0.1c-0.1-0.1-0.2-0.2-0.3-0.3c-0.5-0.4-0.9-0.8-1.4-1.2c-0.4-0.3-0.8-0.7-1.1-1
	c-0.1,0-0.1-0.1-0.2-0.2c-0.3-0.3-0.7-0.7-1.5-0.8c0,0-0.1,0-0.3-0.3c-0.3-0.4-0.7-0.7-1-1c-0.1-0.1-0.2-0.1-0.2-0.2
	c-0.2-0.2-0.4-0.3-0.5-0.4c-0.4-0.5-0.8-1-1.3-1.4c0,0,0,0,0,0l36-35.6l77.8,76.8L97,173.3L19.2,96.5z M101.1,100.9c0,0,0.1,0,0.1,0
	l0.1,0c0,0,0,0,0,0c0,0,0,0,0,0c0.1,0,0.2,0,0.2-0.1c0.6-0.2,1.2-0.3,1.9-0.3c0.1,0,0.2,0.1,0.3,0.1l0.1,0c0.2,0,0.5,0.1,0.9,0
	c0.1,0,0.1,0,0.2,0c0.1,0,0.2,0,0.3,0c0.1,0,0.2,0,0.4,0c0.3,0,0.6,0,1,0c0.4,0,0.7-0.2,1-0.3c0.1,0,0.2-0.1,0.2-0.1
	c0.5-0.1,1-0.2,1.4-0.3c0.8-0.1,1.5-0.2,2.2-0.2c0,0,0.2,0,0.3,0c0.2,0,0.3,0.1,0.5,0.1c0.3,0,0.5,0,0.8,0c0.3,0.3,0.7,0.4,1,0.5
	c0,0,0.1,0,0.1,0c0.1,0.1,0.3,0.1,0.5,0.2c0.3,0.1,0.5,0.2,0.7,0.3c0.1,0.1,0.3,0.2,0.5,0.4c0.2,0.1,0.3,0.3,0.5,0.4
	c0.2,0.2,0.5,0.2,0.7,0.3c0.2,0.1,0.3,0.4,0.5,0.6l0.2,0.2c0.3,0.4,0.4,1,0.5,1.6l0,0.2c0.1,0.6,0.2,1.2,0.4,1.7l0.1,0.4l-0.1,0.8
	c-0.1,0.6-0.1,1.1-0.2,1.7c-0.1,0.6-0.2,1.2-0.3,1.9c-0.1,0.7-0.2,1.3-0.4,2l0,0.1c-0.1,0.5-0.2,1-0.3,1.4c-0.1,0.3-0.2,0.5-0.3,0.7
	c-0.1,0-0.2,0-0.3,0c-0.4,0-0.9,0-1.2,0c-0.5,0-0.9-0.1-1.4-0.2c-0.2,0-0.5-0.1-0.7-0.1c-0.1,0-0.2,0-0.3,0c-0.1,0-0.1,0-0.2,0
	c-0.7,0.1-1.5-0.1-2.3-0.3c-0.3-0.1-0.6-0.1-0.9-0.1c-0.1,0-0.2,0-0.3,0c-0.3,0-0.5-0.1-0.8-0.1c-0.1,0-0.3,0-0.4-0.1
	c-0.1,0-0.3,0-0.4,0c-0.3,0-0.6,0-0.8,0c-0.5,0-1.1,0-1.6-0.1l-0.3,0c-0.4,0-0.7,0-1-0.1c-0.5-0.2-0.9-0.4-1.5-0.8
	c-0.2-0.2-0.5-0.4-0.7-0.7l-0.2-0.2c-0.1-0.1-0.3-0.3-0.3-0.8l0-0.1c-0.1-0.3-0.1-0.4,0-0.4c0.2-0.6,0-1-0.1-1.3c0,0,0-0.1,0-0.1
	c0,0,0-0.1,0-0.1c0-0.3,0-0.6-0.1-0.9c0-0.2,0-0.4,0-0.5c0-0.7-0.1-1.3-0.5-1.8c0-0.1,0-0.3,0-0.4c0.1-0.7,0.1-1.4-0.2-2.2
	c0-0.1,0-0.5,0-0.8c0-0.1,0-0.2,0-0.3c0-0.3,0.1-0.6,0.2-1l0-0.1c0,0,0,0,0.1-0.1c0.2-0.1,0.4-0.3,0.5-0.4
	C101,100.9,101.1,100.9,101.1,100.9z M101,86.4l1.1-0.2c0,0,0,0.1,0,0.1L101,86.4z M117.2,116.2l-0.1-1.2c0,0,0.1,0,0.1,0
	L117.2,116.2z"/>
</svg>
